# xmcd
#
# Track frame offsets:
#	150
#	14735
#	36605
#	52880
#	71012
#	94861
#	111486
#	151479
#	173501
#	195171
#	217060
#	236646
#	257040
#
# Disc length: 3619 seconds
# Revision: 0
# Processed by: cddbd v1.5.2PL0 Copyright (c) Steve Scherf et al.
# Submitted via: dBpowerAMP V12.0
#
DISCID=b90e210d
DTITLE=Quintus McCormick - Still Called the Blues
DYEAR=2012
DGENRE=Blues
TTITLE0=I Gotta Go
TTITLE1=What's Good for the Goose
TTITLE2=What Am I Gonna Do?
TTITLE3=It Won't Work
TTITLE4=Still Called the Blues
TTITLE5=That's My Baby
TTITLE6=Everybody Knows About My Good Thing
TTITLE7=I'm In Love with You Baby
TTITLE8=Oh! Darling
TTITLE9=Searching For Your Love
TTITLE10=Woke Up This Morning
TTITLE11=Always
TTITLE12=Old Time Rock and Roll
EXTD=
EXTT0=
EXTT1=
EXTT2=
EXTT3=
EXTT4=
EXTT5=
EXTT6=
EXTT7=
EXTT8=
EXTT9=
EXTT10=
EXTT11=
EXTT12=
PLAYORDER=
